<?xml version="1.0" encoding="utf-8"?>
<!-- Generator: Adobe Illustrator 26.5.0, SVG Export Plug-In . SVG Version: 6.00 Build 0)  -->
<svg version="1.1" id="Layer_1" xmlns="http://www.w3.org/2000/svg" xmlns:xlink="http://www.w3.org/1999/xlink" x="0px" y="0px"
	 viewBox="0 0 140.3 140.3" style="enable-background:new 0 0 140.3 140.3;" xml:space="preserve">
<style type="text/css">
	.st0{fill:#00964F;}
	.st1{fill:#FFFFFF;}
</style>
<path class="st0" d="M138.8,45.3c-1.5-7.5-3.9-14.8-7.2-21.8c-2.1-4.9-7.1-10.6-15.2-14.9c-8-4.3-19.4-6.9-34-8
	c-2.5-0.2-4.9-0.3-7.2-0.4c-0.4,0-0.8-0.1-1.1-0.2c-1.6-0.4-17.2,0.3-22.7,1c-5.6,0.7-10.9,2.2-16,4.5s-9.5,6.3-13.3,9.9
	s-7.2,7.8-10.2,12.5C4.9,38.5,1,49.9,0.2,62.1C-0.7,74.7,1.8,87.3,7.6,100c4.8,10.2,10.8,18.5,17.8,24.8
	c9.9,9.1,28.7,14.2,56.6,15.3c7.1,0.4,13.6-0.7,19.7-3c6.1-2.4,11.4-5.6,16.2-9.7c4.7-4.1,8.7-8.9,11.9-14.4s5.5-11.3,6.8-17.5
	c1.7-7.9,2.8-15.9,3.4-24C140.7,61.6,140.3,52.8,138.8,45.3z"/>
<g>
	<path class="st1" d="M50.2,33.2c0.3,0.2,0.6,0.3,0.9,0.4c0.3,0.1,0.6,0.1,0.9,0.2c0.3,0.1,0.6,0.2,1,0.4s0.9,0.5,1.4,1
		c0.6,0.5,1,1.2,1.2,2s0.3,1.6,0.4,2.4c0,0.4,0,0.8-0.1,1.2s-0.3,0.8-0.5,1.1s-0.4,0.7-0.6,1c-0.2,0.3-0.5,0.6-0.7,0.8
		c-0.3,0.5-0.8,1-1.5,1.3s-1.3,0.6-2,0.8c-0.3,0.1-0.6,0.2-1.1,0.3s-1,0.2-1.6,0.3s-1.2,0.2-1.8,0.2c-0.6,0.1-1.1,0.1-1.6,0.1
		c-0.4,0-1,0-1.7,0c-0.8,0-1.5,0.1-2.3,0.1S39,46.9,38.3,47c-0.6,0.1-1.1,0.1-1.3,0.1c-1.8,0.1-3.1,0.1-4,0c0-1.8,0-2.8,0.1-2.9
		c0.4,0,0.8,0,1.2,0s0.9,0,1.5,0c0.1-0.2,0.2-0.8,0.2-1.8c0-0.9,0-2.3,0-3.9c0-1.4,0-2.7-0.1-4.2c-0.1-1.4-0.1-2.9-0.3-4.4
		c-0.1-0.9-0.1-1.6-0.2-2c0-0.4-0.1-0.7-0.2-0.8c-0.4,0.1-0.9,0.3-1.4,0.5s-0.8,0.3-1.1,0.3c-0.1,0-0.2,0-0.3,0s-0.2,0-0.3-0.1
		c0-0.4-0.1-0.8-0.1-1.2c0-0.5-0.1-1-0.2-1.5c0.7-0.5,2.7-0.8,5.9-1.1c2-0.2,3.9-0.3,5.7-0.3s3.4,0.1,5,0.3c1,0.2,1.9,0.3,2.6,0.5
		c0.7,0.2,1.3,0.5,1.8,0.7c0.4,0.3,0.8,0.6,1,0.9s0.3,0.7,0.4,1.1c0.1,0.9-0.1,1.7-0.4,2.5c-0.3,0.7-0.7,1.3-1.1,1.7
		c-0.2,0.2-0.4,0.3-0.6,0.5c-0.2,0.1-0.4,0.2-0.6,0.3c-0.2,0.1-0.4,0.2-0.7,0.4C50.6,32.7,50.4,32.9,50.2,33.2z M40,26.5
		c-0.2,2.1-0.2,4.1-0.1,6l0.1,0.8c0.2,0,0.4,0,0.7,0c0.2,0,0.4,0,0.7-0.1c0.9-0.1,1.8-0.2,2.5-0.4s1.4-0.4,2.2-0.6
		c1.2-0.4,2.2-0.8,2.9-1.3s1-1,1-1.7c-0.1-1.3-0.7-2.3-1.6-2.9c-1-0.6-2.4-0.8-4.1-0.7C43,25.9,41.6,26.1,40,26.5z M41.1,43.7
		c0.3,0.2,0.6,0.3,0.9,0.4c0.3,0.1,0.5,0.1,0.7,0.1s0.5,0,0.7,0s0.5-0.1,0.7-0.1c0.1,0,0.3,0,0.6,0s0.7-0.1,1-0.1
		c0.4,0,0.7-0.1,1.1-0.1c0.3,0,0.6,0,0.7-0.1c0.5,0,1-0.1,1.5-0.3s0.9-0.4,1.2-0.8c0.4-0.4,0.6-0.9,0.8-1.5s0.2-1.4,0.2-2.3
		c-0.1-1.4-0.9-2.4-2.4-3s-3.6-0.8-6.3-0.5c-0.2,0-0.4,0-0.8,0.1c-0.3,0-0.8,0.1-1.4,0.2c0.1,0.8,0.2,1.8,0.4,3.1
		C40.8,40.1,41,41.7,41.1,43.7z"/>
	<path class="st1" d="M73.6,21.6c0.8,0.4,1.6,0.9,2.3,1.4c0.7,0.6,1.3,1.2,1.8,2.1c0.5,0.8,0.9,1.7,1.1,2.6s0.4,1.9,0.6,2.9
		c0.1,0.4,0.1,0.7,0.1,1.1c0,0.4,0.1,0.8,0.1,1.2c0.2,2.5,0,4.5-0.4,6c-0.5,1.5-1.1,2.5-1.9,2.9c-1.1,0.7-2.2,1.3-3.4,1.8
		c-1.2,0.4-2.6,0.7-4.3,0.9c-1.3,0.1-2.7,0.1-4,0c-1-0.1-2-0.3-3-0.7s-1.8-1-2.6-1.7s-1.4-1.5-2-2.5s-0.9-2.1-1-3.3
		c-0.5-4.8-0.1-8.2,1.1-10.1c0.9-1.4,2.1-2.6,3.6-3.7c1.9-1.3,3.9-2,6-2.2C69.8,20.3,71.7,20.7,73.6,21.6z M72,41.2
		c1.1-0.4,1.8-1,2.2-1.9c0.2-0.5,0.4-1,0.6-1.6c0.1-0.6,0.2-1.3,0.2-2.1s0-1.6,0-2.4c0-0.7,0-1.4,0-1.9c-0.1-1.8-0.5-3.3-1.1-4.5
		c-0.6-1.1-1.3-2-2.3-2.5c-1.1-0.4-2.2-0.6-3.3-0.5c-2,0.2-3.7,1.2-5.2,3.2c-1.1,1.4-1.7,2.6-1.8,3.7c-0.1,0.9-0.1,1.8,0,2.7
		c0.2,2.8,0.9,5,2.1,6.6c1.3,1.6,2.9,2.2,4.9,1.9c0.9-0.2,1.6-0.3,2.2-0.4C71.3,41.4,71.7,41.3,72,41.2z"/>
	<path class="st1" d="M106.1,18.5c0,0.2,0,0.3,0,0.4s0,0.3,0.1,0.6c0.1,0.2,0.1,0.4,0.1,0.6c0,0.3,0,0.6-0.2,0.9
		c-0.3,0.1-0.9,0.2-1.6,0.3l-0.7,0.1c-0.6,0-1.1,0.1-1.4,0.2c-0.3,0.4-0.6,0.9-1.2,1.5c-0.5,0.6-1.2,1.3-2,2.2
		c-0.7,0.8-1.3,1.5-1.9,2.1c-0.5,0.6-0.9,1.2-1.2,1.7c1.4,1.5,2.8,3.1,4.3,4.7c1.5,1.6,3,3.2,4.7,4.9c0.3,0,0.6-0.1,1.1-0.1
		s1.1,0,1.9-0.1c-0.1,0.2-0.1,0.7-0.2,1.4l-0.1,1.5c-0.3,0.2-0.7,0.3-1.2,0.4h-0.2h0.2c-0.2,0-0.9,0-2.1,0.1c-1.3,0-2.7,0.1-4.2,0.1
		s-3,0.2-4.7,0.3c0-0.3,0.1-0.6,0.1-0.8c0.1-0.3,0.1-0.5,0.1-0.7c0-0.8,0.1-1.3,0.2-1.5c0.6-0.1,1.2-0.2,1.8-0.1
		c0.6,0,1.2,0,1.9,0.1c0-0.1,0-0.2-0.2-0.4c-0.1-0.2-0.3-0.5-0.5-0.7c-0.2-0.3-0.3-0.5-0.5-0.7s-0.3-0.4-0.3-0.4
		c-0.3-0.3-0.6-0.6-0.9-0.8c-0.3-0.3-0.6-0.6-0.9-0.9c-0.3-0.3-0.7-0.7-1.2-1.1c-0.4-0.4-0.9-0.9-1.5-1.4c-0.3,0.4-1.2,1.5-2.6,3.1
		c-0.6,0.7-1.1,1.4-1.5,2s-0.8,1.2-1,1.7c0.4,0.2,0.9,0.3,1.5,0.3c0.3,0,0.9-0.1,1.6-0.4c0.1-0.1,0.2-0.1,0.4-0.1c0.1,0,0.2,0,0.3,0
		c0,0.2,0,0.4,0.1,0.7s0.1,0.6,0.2,1.1c0.1,0.3,0.1,0.5,0.1,0.7s0,0.3,0,0.4c-5.6,0.9-9.1,1.3-10.6,1.3c-0.2-0.2-0.4-0.7-0.5-1.2
		c-0.2-0.6-0.3-1.3-0.4-2.2c0.3-0.1,0.6-0.1,0.9-0.1c0.7,0,1.2,0,1.4,0l3.9-4.8c1.6-1.7,2.9-3.3,3.9-4.7c-0.8-1.1-2.2-2.3-4-3.8
		c-1.2-1-2.2-1.7-2.9-2.3c-0.7-0.6-1.2-1-1.4-1.2c-0.1,0-0.3,0-0.5,0s-0.4,0.1-0.6,0.1c-0.6,0.1-0.9,0.2-1.1,0.2c-0.4,0-0.7,0-1-0.1
		c0-0.2,0-0.3,0-0.6c0-0.2,0-0.4,0.1-0.7c0-0.2,0.1-0.4,0.1-0.6s0-0.4,0-0.6c2.4-0.2,6.3-0.7,11.8-1.4c0.3,1,0.5,1.9,0.6,2.7
		c-0.2,0.1-0.4,0.2-0.8,0.2c-0.1,0-0.1,0-0.2,0s-0.2,0-0.4,0h-0.6c-0.5,0-0.9,0.2-1.1,0.3c0.5,0.7,1.2,1.5,2.2,2.4l2.3,2.1l2-2.4
		c0.9-1,1.5-1.9,1.9-2.5c-0.2-0.1-0.5-0.2-1-0.1c-0.6,0.1-1,0.1-1,0.1c0-0.2,0-0.5,0-0.8s0-0.4,0-0.6s-0.1-0.4-0.1-0.6
		c-0.1-0.2-0.1-0.5-0.1-0.9c0.2,0,0.6-0.1,1-0.1s1-0.1,1.9-0.2c1.2-0.1,2.2-0.3,3-0.3c0.8-0.1,1.3-0.2,1.7-0.2
		C104.3,18.5,105.3,18.5,106.1,18.5z"/>
	<path class="st1" d="M29.3,60.1c0.5,0,0.9,0,1.1-0.1c0.2,0,0.4,0,0.6,0c0.2,1.5,0.3,2.9,0.5,4.2c0.1,1.3,0.3,2.7,0.4,3.9
		c-0.2,0-0.6,0-1.1,0s-1.3,0-2.2-0.1c0-0.2-0.1-0.4-0.1-0.5s0-0.3-0.1-0.7c-0.1-1-0.5-1.7-1.1-2.3c-0.6-0.6-1.3-0.9-2-1.1
		c-1-0.2-1.7-0.4-2.3-0.4c-0.5-0.1-1-0.1-1.5,0c-1.1,0.1-1.9,0.3-2.4,0.7c-0.5,0.4-0.7,1-0.7,1.9c0.1,0.7,0.3,1.3,0.8,1.8
		s1.3,1,2.3,1.4c0.7,0.3,2.6,1,5.6,1.9c1.2,0.3,2.1,0.7,2.9,1s1.3,0.6,1.6,0.9c1.4,1.3,2.2,2.7,2.3,4.4c0.1,0.7,0,1.4,0,2.2
		c-0.1,1.3-0.7,2.3-1.9,3.2c-1.1,0.8-2.6,1.5-4.3,1.9c-0.2,0.1-0.4,0.1-0.6,0.1s-0.4,0-0.6,0c-0.8,0.1-1.6,0.1-2.3,0
		c-0.7-0.1-1.6-0.3-2.5-0.6c-0.4-0.1-0.9-0.3-1.3-0.5s-0.8-0.4-1.2-0.6c-0.4-0.2-0.9-0.5-1.3-0.7c0,0.4,0,0.8,0,1.3
		c0,0.4,0.1,0.9,0.1,1.3c-0.1,0-0.2,0-0.4,0c-0.2,0-0.3,0-0.6,0.1c-0.2,0-0.3,0-0.5,0s-0.3,0-0.4,0c-0.2,0-0.3,0-0.5,0
		s-0.3,0-0.5-0.1c-0.2-1.5-0.3-2.9-0.5-4.3c-0.1-1.3-0.2-2.6-0.3-3.7c0.2-0.1,0.5-0.2,1-0.2c0.4-0.1,1-0.1,1.8-0.2
		c0,0.2,0,0.4,0,0.5s0,0.3,0,0.4c0,0.6,0.3,1.2,0.7,1.7c0.4,0.5,0.9,1,1.3,1.3c0.6,0.3,1.1,0.6,1.8,0.8c0.6,0.2,1.3,0.4,1.9,0.5
		s1.2,0.2,1.7,0.2s1,0.1,1.3,0c2.5-0.2,3.6-1.5,3.4-3.9c0-0.3-0.1-0.5-0.1-0.7s-0.1-0.4-0.2-0.6c-0.5-0.3-1-0.7-1.7-1
		c-0.6-0.3-1.5-0.6-2.4-0.8c-1.6-0.3-2.9-0.7-3.9-1s-1.9-0.6-2.6-1c-1.2-0.6-2.2-1.3-3-2.2c-0.8-0.8-1.2-1.8-1.3-3
		c-0.1-0.9,0-2,0.3-3.1c0.5-2.2,2.5-3.4,5.7-3.7c1.4-0.1,3.1,0,5,0.3c0.7,0.1,1.3,0.3,1.7,0.5c0.5,0.2,0.9,0.4,1.3,0.6
		c0,0-0.1-0.2-0.1-0.4s-0.1-0.4-0.1-0.6c-0.1-0.3-0.1-0.5-0.1-0.6s0-0.1,0-0.2v-0.1c0.1,0,0.2,0,0.4,0
		C28.5,60.1,28.8,60.1,29.3,60.1z"/>
	<path class="st1" d="M66.7,57.8c0.1,1.3,0,2.2-0.3,2.6c-0.2,0-0.5,0-0.8,0s-0.7,0.1-1.2,0.1c-0.8,3.6-1.5,7-2.3,10.3
		s-1.4,6.5-2,9.6c-0.1,0-0.3,0-0.8,0.1s-1.3,0.2-2.5,0.4c-0.7-1-1.4-2.5-2.1-4.6c-0.2-0.6-0.5-1.2-0.7-1.8c-0.2-0.6-0.4-1.1-0.6-1.7
		c-0.2-0.5-0.4-1-0.5-1.3c-0.1-0.4-0.3-0.7-0.3-0.8c-0.2,0.6-0.6,1.5-1,2.7c-0.5,1.3-1,2.7-1.7,4.4c-1,2.9-1.7,4.4-1.9,4.5
		c-0.4,0-0.9,0-1.6-0.1s-1.4,0-2.4,0c-0.1-0.3-0.2-0.8-0.4-1.3s-0.4-1.2-0.7-2.1c-0.3-0.8-0.7-1.8-1.1-3c-0.4-1.2-0.9-2.5-1.6-4.1
		l-3.5-9.1c-1.1,0-2,0.2-2.7,0.4l-0.1-1.8c0-0.1,0-0.3,0-0.4c0-0.1,0-0.3,0-0.4c0-0.1,0-0.2,0-0.4c0.9-0.1,2.8-0.2,5.7-0.4
		c2.3-0.2,3.7-0.3,4.1-0.2c0.1,0.4,0.2,0.9,0.3,1.3c0.1,0.4,0.2,0.8,0.3,1.2l-2.6,0.2c0.1,0.7,0.3,1.3,0.4,1.9
		c0.2,0.6,0.3,1.2,0.5,1.7c0.2,0.6,0.4,1.2,0.7,1.9c0.3,0.7,0.5,1.5,0.9,2.5c0.3,0.8,0.5,1.6,0.8,2.3s0.5,1.5,0.7,2.1
		s0.4,1.2,0.6,1.6c0.2,0.4,0.3,0.7,0.4,0.8c0.3-0.4,0.7-1,1-1.8s0.6-1.8,0.9-2.9c0.3-1.2,0.7-2.3,1.1-3.4c0.4-1,0.7-1.7,0.9-2.1
		c0-0.2-0.1-0.4-0.2-0.8c-0.1-0.4-0.2-0.8-0.4-1.3s-0.3-1-0.5-1.6s-0.4-1.1-0.6-1.7c-0.4,0-0.8,0-1.1,0c-0.4,0-0.7,0.1-1,0.2
		c-0.4-0.6-0.6-1.2-0.7-1.8c0-0.1,0-0.2,0-0.3s0-0.2,0-0.3c1-0.5,2.3-0.8,4.1-0.9c0.2,0,0.5,0,0.8,0s0.7,0,1.2,0s0.9,0,1.2-0.1
		c0.3,0,0.6,0,0.8-0.1c0.2,0,0.3,0,0.4-0.1c0.1,0,0.2,0,0.4-0.1c0.1,0.2,0.2,0.4,0.2,0.6c0.1,0.2,0.1,0.4,0.1,0.6
		c0,0.4,0,0.8-0.2,1.2h-0.5c-0.3,0-0.5,0-0.7,0s-0.3,0-0.5,0.1c0,0.1,0,0.2,0,0.4s0,0.3,0,0.5c0.1,0.8,0.3,1.9,0.7,3.1
		s0.9,2.6,1.4,4.2c0.3,0.7,0.5,1.4,0.7,2.1s0.4,1.2,0.6,1.8c0.2,0.5,0.4,1,0.5,1.3c0.2,0.4,0.3,0.6,0.5,0.8c0.2-1.3,0.5-2.5,0.8-3.8
		s0.6-2.5,0.9-3.7c0.3-1.2,0.5-2.3,0.7-3.4s0.4-2.1,0.4-3c-0.2-0.1-0.3-0.1-0.5-0.1c-0.1,0-0.2,0-0.4,0.1c-0.2,0-0.4,0.1-0.6,0.2
		c-0.3,0.1-0.5,0.2-0.7,0.2s-0.4,0-0.5,0.1c0.2,0,0.1-0.1,0.1-0.3c-0.1-0.2-0.1-0.4-0.1-0.6c0-0.3,0-0.9,0.1-1.8
		c1.2-0.3,2.3-0.5,3.5-0.6c0.8-0.1,1.7-0.1,2.6-0.1C64.9,57.7,65.8,57.7,66.7,57.8z"/>
	<path class="st1" d="M76.9,56.5c0.6,1.2,1.2,2.4,1.9,3.7c0.6,1.2,1.2,2.5,1.8,3.7c1.4,2.9,2.6,5.3,3.7,7.3c1,2,1.9,3.6,2.7,4.9
		c0.2,0.1,0.5,0.1,0.9,0.1s0.8,0,1.2-0.1c0,0.2,0.1,0.4,0.1,0.5c0,0.2,0,0.3,0.1,0.5c0.1,0.8-0.1,1.4-0.4,1.7c-0.3,0-0.9,0-1.9,0
		c-1,0.1-2.3,0.1-4,0.2c-1.6,0.1-2.9,0.2-3.8,0.2c-0.9,0.1-1.4,0.1-1.7,0.1c0-0.1,0-0.3,0-0.5s0-0.5,0.1-0.7
		c0.1-0.7,0.2-1.1,0.4-1.2c1.2-0.3,2.3-0.6,3.3-0.9c0-0.3-0.1-0.7-0.2-1.1s-0.2-1-0.4-1.6c-0.1-0.4-0.3-0.8-0.4-1.1
		c-0.1-0.3-0.2-0.5-0.3-0.6c-0.7,0-1.7,0-3,0.1c-1.2,0-2.8,0.1-4.6,0.3c-0.1,0.2-0.3,0.5-0.4,0.8s-0.2,0.7-0.4,1.1
		c-0.2,0.8-0.4,1.4-0.5,1.9c-0.2,0.5-0.3,0.8-0.3,0.9c0.2,0.1,0.4,0.1,0.7,0.1c0.3,0,0.5,0,0.8,0s0.6-0.1,0.8-0.2
		c0.3-0.1,0.5-0.1,0.9-0.2c0.1,0.2,0.2,0.4,0.3,0.6c0,0.2,0.1,0.5,0.1,0.9c0.1,0.8-0.1,1.4-0.6,1.6c-0.5,0.1-1,0.2-1.6,0.2
		c-0.6,0.1-1.3,0.1-2,0.2L68.3,80c-0.8,0.1-1.6,0.1-2.3,0c-0.7,0-1.2-0.1-1.4-0.1c0-0.1-0.1-0.3-0.1-0.4s0-0.2,0-0.4
		c0-0.5,0-0.9,0-1.3c0.1-0.4,0.2-0.6,0.3-0.8c0.1,0,0.3,0,0.4,0s0.3,0,0.5,0s0.4,0,0.5-0.1c0.2,0,0.4-0.1,0.6-0.1
		c0.8-1.1,1.8-3.3,2.9-6.7c1.1-3.4,2.4-7.9,3.8-13.6c0.8-0.1,1.6-0.2,2.3-0.3c0.2,0,0.4,0,0.6,0C76.5,56.5,76.7,56.5,76.9,56.5z
		 M75.1,62c-0.2,0.4-0.4,0.9-0.6,1.7c-0.2,0.7-0.5,1.5-0.8,2.3c-0.2,0.8-0.4,1.5-0.5,2c-0.2,0.6-0.3,1-0.4,1.3c0.1,0,0.4,0,0.9,0
		s1.2,0,2.1,0.1c0.5,0,1,0,1.5,0.1c0.5,0,1,0,1.5,0l-1.5-3.7c-0.3-0.7-0.7-1.4-1-2.1C75.8,62.9,75.5,62.4,75.1,62z"/>
	<path class="st1" d="M97.5,67.9c0,0.3,0,0.6,0,1s0,0.7,0.1,1c0.2,2.5,0.6,4.4,1.2,5.7c0.4,0,0.8,0,1.2,0c0.4,0,1-0.1,1.7-0.1
		c0.7-0.1,1.2-0.1,1.5,0c0.1,0.3,0.2,0.7,0.2,1.1c0,0.3,0,0.6,0,0.8c0,0.2,0,0.3,0,0.5c-1.6,0.2-2.9,0.4-4.2,0.6
		c-1.2,0.2-2.3,0.3-3.4,0.4c-0.7,0.1-1.4,0.1-1.8,0c-0.3,0-0.7,0.1-1.2,0.1s-1.1,0.1-1.7,0.1v-1.5c0-0.2,0-0.5,0-0.8
		s0.1-0.5,0.1-0.8l3.2-0.3c-0.4-2.7-0.7-5.4-1.1-8.2c-0.4-2.8-0.7-5.7-1.1-8.7c-0.2-0.1-0.4-0.1-0.7-0.2c-0.3,0-0.6-0.1-1-0.1
		c-0.5,0-0.9,0-1.2,0c-0.2,0-0.3,0-0.4,0c-0.1-0.1-0.1-0.2-0.1-0.3s0-0.2,0-0.3c-0.1-0.9,0.1-1.6,0.4-2.2c0.2-0.1,0.7-0.1,1.5-0.2
		c0.5,0,1.2-0.1,2.2-0.1s2.1-0.1,3.5-0.2c1.7-0.1,3-0.2,4-0.2s1.6-0.1,1.9-0.1c0.5,0,0.9,0,1.1,0c0.3,0,0.6,0.1,1.1,0.1
		c0.6,0,1.1,0.2,1.7,0.4s1,0.5,1.4,0.8c0.9,0.8,1.5,1.6,1.9,2.4c0.3,0.8,0.6,1.6,0.6,2.6c0,0.6,0,1.2-0.1,1.8s-0.3,1.2-0.7,1.8
		c-0.3,0.4-0.6,0.8-0.9,1.1c-0.3,0.3-0.6,0.5-0.9,0.8c-0.8,0.8-2.3,1.2-4.4,1.4c-0.9,0.1-1.8,0.1-2.6,0.1C99.6,68,98.6,68,97.5,67.9
		z M105.3,59.8c-0.2-1-0.9-1.7-2.3-2.2c-1.2-0.3-2.5-0.4-4.1-0.3c-0.3,0-0.7,0.1-1,0.1s-0.6,0.1-0.9,0.2c0,0.3,0,0.7,0,1.1
		c0,0.5,0,1,0,1.7c0,0.6,0,1.2,0,1.7s0,0.9,0.1,1.3c0,0.3,0.1,0.7,0.1,1c0,0.3,0.1,0.7,0.2,1c0.7-0.1,1.3-0.1,2-0.2
		c0.6-0.1,1.2-0.1,1.7-0.2s1-0.1,1.4-0.2s0.7-0.2,1-0.3c0.4-0.2,0.8-0.4,1.1-0.6c0.3-0.2,0.5-0.4,0.6-0.7s0.2-0.6,0.3-0.9
		c0-0.3,0-0.7,0-1.2c0-0.1,0-0.3-0.1-0.6C105.3,60.2,105.3,59.9,105.3,59.8z"/>
	<path class="st1" d="M126.9,52.4c0.5,0,0.9,0,1.1-0.1c0.2,0,0.4,0,0.6,0c0.2,1.5,0.3,2.9,0.5,4.2s0.3,2.7,0.4,3.9
		c-0.2,0-0.6,0-1.1,0s-1.3,0-2.2-0.1c0-0.2-0.1-0.4-0.1-0.5s0-0.3-0.1-0.7c-0.1-1-0.5-1.7-1.1-2.3s-1.3-0.9-2-1.1
		c-1-0.2-1.7-0.4-2.3-0.4c-0.5-0.1-1-0.1-1.5,0c-1.1,0.1-1.9,0.3-2.4,0.7s-0.7,1-0.7,1.9c0.1,0.7,0.3,1.3,0.8,1.8s1.3,1,2.3,1.4
		c0.7,0.3,2.6,1,5.6,1.9c1.2,0.3,2.1,0.7,2.9,1s1.3,0.6,1.6,0.9c1.4,1.3,2.2,2.7,2.3,4.4c0.1,0.7,0,1.4,0,2.2
		c-0.1,1.3-0.7,2.3-1.9,3.2c-1.1,0.8-2.6,1.5-4.3,1.9c-0.2,0.1-0.4,0.1-0.6,0.1s-0.4,0-0.6,0c-0.8,0.1-1.6,0.1-2.3,0
		c-0.7-0.1-1.6-0.3-2.5-0.6c-0.4-0.1-0.9-0.3-1.3-0.5s-0.8-0.4-1.2-0.6c-0.4-0.2-0.9-0.5-1.3-0.7c0,0.4,0,0.8,0,1.3s0.1,0.9,0.1,1.3
		c-0.1,0-0.2,0-0.4,0c-0.2,0-0.3,0-0.6,0.1c-0.2,0-0.3,0-0.5,0s-0.3,0-0.4,0c-0.2,0-0.3,0-0.5,0s-0.3,0-0.5-0.1
		c-0.2-1.5-0.3-2.9-0.5-4.3c-0.1-1.3-0.2-2.6-0.3-3.7c0.2-0.1,0.5-0.2,1-0.2c0.4-0.1,1-0.1,1.8-0.2c0,0.2,0,0.4,0,0.5s0,0.3,0,0.4
		c0,0.6,0.3,1.2,0.7,1.7c0.4,0.5,0.9,1,1.3,1.3c0.6,0.3,1.1,0.6,1.8,0.8c0.6,0.2,1.3,0.4,1.9,0.5s1.2,0.2,1.7,0.2s1,0.1,1.3,0
		c2.5-0.2,3.6-1.5,3.4-3.9c0-0.3-0.1-0.5-0.1-0.7c-0.1-0.2-0.1-0.4-0.2-0.6c-0.5-0.3-1-0.7-1.7-1c-0.6-0.3-1.4-0.6-2.4-0.8
		c-1.6-0.3-2.9-0.7-3.9-1s-1.9-0.6-2.6-1c-1.2-0.6-2.2-1.3-3-2.2c-0.8-0.8-1.2-1.8-1.3-3c-0.1-0.9,0-2,0.3-3.1
		c0.5-2.2,2.5-3.4,5.7-3.7c1.4-0.1,3.1,0,4.9,0.3c0.7,0.1,1.3,0.3,1.7,0.5c0.5,0.2,0.9,0.4,1.3,0.6c0,0-0.1-0.2-0.1-0.4
		s-0.1-0.4-0.1-0.6c-0.1-0.3-0.1-0.5-0.1-0.6s0-0.1,0-0.2v-0.1c0.1,0,0.2,0,0.4,0C126.1,52.4,126.4,52.4,126.9,52.4z"/>
</g>
<g>
	<path class="st1" d="M73.4,92.5c-1.3-0.4-1.8-0.7-3-1.3c-1-0.5-3.4-2-4.6-1.5c-0.7,0.4-0.1,2,0.2,2.6c0.6,1.4,1.4,2.9,0.9,3.2
		c-1,0.7-3.4,1.2-4.5,1.6c-6.5,2.7-7.6,11.5-6.4,17.4c0.2,1.1,0.6,2.2,1,3.2c0.8,1.8,2.2,3.8,3.4,5.2c0.8,0.9,3.1,2.7,4.2,3.1
		c1.1,0.3,3.4-4,4-4.9s2.4-2.3,2.4-3.4c0,0-2.4-1.9-3.4-2.6c-2.2-1.5-4.2-3.5-4.6-6.3c-0.5-3.9,2.5-7,5.5-8.4c0.4,1.1,0.8,2.4,1,2.7
		c0.4,0.6,0.7,1.7,1.6,1.7c1,0,1.6-1.5,2.1-2.2c0.9-1.4,1.9-2.7,2.8-4c0.7-0.9,1.5-1.8,2-2.9c0.6-1.4,0.1-1.8-1.3-2.2
		C75.7,93.4,74.4,92.8,73.4,92.5"/>
	<path class="st1" d="M77,127.9c1.3,0.4,1.8,0.7,3,1.3c1,0.5,3.4,2,4.6,1.5c0.7-0.4,0.1-2-0.2-2.6c-0.6-1.4-1.4-2.9-0.9-3.2
		c1-0.7,3.4-1.2,4.5-1.6c6.5-2.7,7.6-11.5,6.4-17.4c-0.2-1.1-0.6-2.2-1-3.2c-0.8-1.8-2.2-3.8-3.4-5.2c-0.8-0.9-3.1-2.7-4.2-3.1
		c-1.1-0.3-3.4,4-4,4.9s-2.4,2.3-2.4,3.4c0,0,2.4,1.9,3.4,2.6c2.2,1.5,4.2,3.5,4.6,6.3c0.5,3.9-2.5,7-5.5,8.4
		c-0.4-1.1-0.8-2.4-1-2.7c-0.4-0.6-0.7-1.7-1.6-1.7c-1,0-1.6,1.5-2.1,2.2c-0.9,1.4-1.9,2.7-2.8,4c-0.7,0.9-1.5,1.8-2,2.9
		c-0.6,1.4-0.1,1.8,1.3,2.2C74.7,126.9,76,127.6,77,127.9"/>
</g>
</svg>
