<svg version="1.1" id="Layer_1" xmlns="http://www.w3.org/2000/svg" x="0" y="0" viewBox="-407 581.5 25.2 29" xml:space="preserve"><style>.st0{fill:#fff}.st1{fill:#3d5a99}</style><g id="_x2E_svg_1_"><path class="st0" d="M-381.8 597.5c0-1.4-.2-2.8-.4-4.2-.1-.6-.2-1.2-.3-1.9-.1-.3-.1-.6-.2-.9 0-.2-.1-.3-.1-.5-.1-.5-.1-.6-.1-.3 0-.1 0-.2-.1-.3-.3-1.6-.6-3.3-1.7-4.6-1.7-1.9-4.5-2.7-7-3-3-.3-6.2.3-8.9 1.7-1.3.8-2.6 1.9-3.5 3.2-1.3 1.7-1.9 3.9-2.3 6.3-.4 2.1-.7 4.7-.6 7.1.1 2.4.4 5.1 1.8 7.1.9 1.2 2.2 2 3.6 2.4 1.7.6 3.5.9 5.3 1 3.3.2 7 0 10.1-1.4 1.6-.7 2.4-2.1 3.1-3.6 1.1-2.6 1.4-5.4 1.3-8.1zM-391.1 604.2c0 .2 0 .3 0 0z"/></g><g id="_x2E_svg_37_"><path class="st1" d="M-381.8 597.3c0-1.4-.2-2.8-.4-4.2-.1-.6-.2-1.2-.3-1.9-.1-.3-.1-.6-.2-.9 0-.2-.1-.3-.1-.5-.1-.5-.1-.6-.1-.3 0-.1 0-.2-.1-.3-.3-1.6-.6-3.3-1.7-4.6-1.7-1.9-4.5-2.7-7-3-3-.3-6.2.3-8.9 1.7-1.3.8-2.6 1.9-3.5 3.2-1.3 1.7-1.9 3.9-2.3 6.3-.4 2.1-.7 4.7-.6 7.1.1 2.4.4 5.1 1.8 7.1.9 1.2 2.2 2 3.6 2.4 1.7.6 3.5.9 5.3 1 3.3.2 7 0 10.1-1.4 1.6-.7 2.4-2.1 3.1-3.6 1.1-2.6 1.4-5.4 1.3-8.1zm-6.5-7.1c-.4.3-.8.5-1.3.5-.8 0-1.4-.3-1.7-.9v-.4c0-.3.1-.6.2-.8.2-.4.4-.6.4-.7-.3-.3-.6-.4-1-.4-.7 0-1.3.5-1.7 1.6-.4.9-.6 1.8-.5 2.7.7.3 1.7.3 3 .1.1.2.1.4.1.6s0 .4-.1.8c-.1.5-.1.9-.1 1.2h-.5c-.2 0-.6 0-1-.1s-.8-.1-1.1-.1c.1 1.3.1 2.7.2 4 .1 1.6.3 2.9.6 4 .1.1.4.1.9.1s.8.1 1 .2v1.4c0 .3.1.6.2.8-1.6.1-2.9.2-4 .2-1.9 0-3.3-.2-4.5-.5-.1-.3-.2-.6-.2-.9 0-.4.1-.9.4-1.5.1 0 .3.1.5.1.1 0 .5 0 1.1-.1.5-.1.9-.1 1.2 0 .1-.8.1-1.6.1-2.4 0-1.7-.2-3.4-.5-5.2h-1c-.5.1-.8.1-.9.1-.2 0-.3 0-.5-.1-.3-.6-.5-1.2-.5-1.8 0-.3.1-.5.2-.7.4 0 .8-.1 1.2-.1.5 0 1-.1 1.3-.3-.1-.3-.1-.6-.1-1 0-1.2.5-2.4 1.6-3.3 1-1 2.2-1.5 3.5-1.5.8 0 1.5.2 2.2.7.4.3.8.7 1.1 1.2.4.6.5 1.1.5 1.6-.1.4-.2.6-.3.9zM-391.1 604c0 .2 0 .3 0 0z"/></g></svg>