<?xml version="1.0" encoding="utf-8"?>
<!-- Generator: Adobe Illustrator 26.3.1, SVG Export Plug-In . SVG Version: 6.00 Build 0)  -->
<svg version="1.1" id="Layer_1" xmlns="http://www.w3.org/2000/svg" xmlns:xlink="http://www.w3.org/1999/xlink" x="0px" y="0px"
	 viewBox="0 0 140.3 140.3" style="enable-background:new 0 0 140.3 140.3;" xml:space="preserve">
<style type="text/css">
	.st0{fill:#680E5A;}
	.st1{fill:#FFFFFF;}
</style>
<path class="st0" d="M138.8,45.3c-1.5-7.5-3.9-14.8-7.2-21.8c-2.1-4.9-7.1-10.6-15.2-14.9c-8-4.3-19.4-6.9-34-8
	c-2.5-0.2-4.9-0.3-7.2-0.4c-0.4,0-0.8-0.1-1.1-0.2c-1.6-0.4-17.2,0.3-22.7,1c-5.6,0.7-10.9,2.2-16,4.5s-9.5,6.3-13.3,9.9
	s-7.2,7.8-10.2,12.5C4.9,38.5,1,49.9,0.2,62.1C-0.7,74.7,1.8,87.3,7.6,100c4.8,10.2,10.8,18.5,17.8,24.8
	c9.9,9.1,28.7,14.2,56.6,15.3c7.1,0.4,13.6-0.7,19.7-3c6.1-2.4,11.4-5.6,16.2-9.7c4.7-4.1,8.7-8.9,11.9-14.4s5.5-11.3,6.8-17.5
	c1.7-7.9,2.8-15.9,3.4-24C140.7,61.6,140.3,52.8,138.8,45.3z"/>
<g>
	<path class="st1" d="M38.6,38.7c-0.5,0-1.5-0.1-2.8-0.3c0-0.1,0-0.2,0-0.4s0-0.6,0-1c0-0.2,0-0.4,0-0.6c0-0.2,0-0.3,0-0.5
		c0-0.6-0.1-1.1-0.1-1.6s-0.1-0.7-0.3-0.8C35,33.2,34.3,33,33.5,33c-0.8,0-1.8,0.1-2.8,0.1c-0.2,0-0.5,0-0.9,0.1
		c-0.4,0-0.8,0.1-1.3,0.2c-0.5,0.1-0.9,0.1-1.3,0.2c-0.4,0-0.7,0.1-1,0.1c-0.1,0.6-0.1,1.7,0,3.1c0.1,2.1,0.2,3.2,0.2,3.3
		c0.7,0.2,1.4,0.3,2.4,0.3c0.4,0,0.7-0.1,1-0.2c0.3-0.1,0.7-0.2,1.1-0.4c-0.3-1.3-0.4-2.1-0.3-2.5c0.5-0.1,1-0.1,1.5-0.1
		c0.5,0,1.1,0,1.6,0c-0.4,1.2-0.5,2.7-0.4,4.6c0.1,0.9,0.1,1.6,0.1,2.3c0,0.6,0,1.1-0.1,1.3L31,45.6c0.1-0.6,0.1-1.1,0.1-1.5
		s0-0.7,0-0.8c0-0.3-0.1-0.5-0.1-0.6c-0.4,0.1-1,0.1-1.8,0.2c-0.8,0-1.6,0.1-2.7,0.2l0.2,2.5c0.1,1,0.2,1.9,0.3,2.5
		c0.1,0.7,0.1,1.2,0.1,1.4c0.5,0.3,1.1,0.4,2.1,0.3c0.2,0,0.3,0,0.5-0.1c0.2,0,0.4-0.1,0.6-0.1s0.5-0.1,0.9-0.2
		c0.3-0.1,0.8-0.2,1.3-0.3c0.1,0.2,0.2,0.7,0.2,1.4s0,1.1-0.1,1.5c-0.3,0.2-1.2,0.3-2.8,0.4c-0.3,0-0.7,0.1-1.3,0.1
		c-0.5,0-1.2,0.1-2,0.1c-0.8,0.2-1.4,0.3-2,0.5c-0.6,0.1-1,0.2-1.4,0.3c-0.7,0.1-1.4,0.1-1.9,0.2c-0.5,0.1-1,0.1-1.3,0.2
		c-0.7-0.6-1.1-1.4-1.1-2.3c0.4-0.3,0.9-0.6,1.7-0.8c1-0.2,1.8-0.4,2.2-0.6c0-0.1-0.1-0.7-0.1-1.6c0-0.9,0-2.2,0-3.8
		c-0.1-1.6-0.2-2.9-0.2-4.1c-0.1-1.2-0.1-2.2-0.2-3c-0.1-1.9-0.4-3.1-0.8-3.6c-0.1,0-0.4,0-0.6,0c-0.3,0-0.6,0-1,0.1
		c-0.8,0.1-1.4,0.1-1.8,0c-0.3-0.5-0.5-1-0.5-1.6c0-0.3,0-0.6,0.1-0.9c9-1,15.4-1.7,19-2c0.5,0,0.8-0.1,1.1-0.1s0.5,0,0.7,0
		c0.1,0.1,0.1,1.7,0.2,4.7c0,1.3,0,2.3,0.1,3C38.6,37.9,38.6,38.4,38.6,38.7z"/>
	<path class="st1" d="M51.8,28.5c0.3,0.3,0.4,0.9,0.5,2c0.1,0.8,0,1.3-0.1,1.5c-0.1,0-0.7,0-1.9,0.1c-0.5,0-0.9,0-1.1,0
		c-0.2,0-0.4,0-0.6-0.1c0,0.4,0,0.7,0.1,1c0,0.3,0,0.6,0,1s0,0.9,0.1,1.5c0,0.6,0.1,1.4,0.1,2.3c0.1,2.1,0.2,3.9,0.2,5.3
		c0.1,1.4,0.1,2.5,0.2,3.3c0.1,1.1,0.2,1.7,0.2,1.8c0.5,0.1,0.9,0.1,1.3,0.1c0.2,0,0.5-0.1,0.8-0.1c0.4-0.1,0.7-0.1,0.9-0.1
		c0.1,0,0.2,0,0.3,0s0.2,0,0.3,0c0.3,0.3,0.5,0.6,0.6,1.1s0.2,1,0.3,1.5c-0.2,0.2-0.9,0.4-2.1,0.5c-1,0.1-2.9,0.1-5.6,0.2
		c-1.3,0-2.3,0-3.1,0s-1.3,0.1-1.6,0.1c-0.1-0.1-0.2-0.6-0.2-1.4c0-0.8,0-1.3,0.2-1.6c0.3,0,0.8,0,1.6,0.2c0.7,0.1,1.2,0.2,1.5,0.2
		c0.4,0,0.6-0.1,0.9-0.2c-0.2-4.7-0.3-8.3-0.4-10.9c-0.1-2.6-0.1-4.3-0.1-5c-1.1,0.1-2,0.2-2.7,0.2s-1.3,0-1.9,0c0-0.2,0-0.3,0-0.4
		c0-0.1,0-0.3,0-0.5s-0.1-0.5-0.1-0.8c-0.1-0.4-0.1-0.6-0.1-0.8c0-0.2,0-0.4,0-0.4c1-0.3,2.6-0.5,4.8-0.6c1.4-0.1,2.5-0.2,3.3-0.2
		c0.8-0.1,1.4-0.1,1.7-0.1C51,28.8,51.5,28.7,51.8,28.5z"/>
	<path class="st1" d="M79.1,26.4c0,0.2,0,0.3,0,0.4s0,0.3,0.1,0.5s0.1,0.4,0.1,0.5c0,0.3,0,0.6-0.2,0.9c-0.3,0.1-0.8,0.2-1.5,0.2
		L76.9,29c-0.6,0-1,0.1-1.3,0.2c-0.2,0.4-0.6,0.8-1.1,1.4s-1.2,1.3-2,2.1c-0.7,0.8-1.3,1.4-1.8,2s-0.9,1.2-1.1,1.6
		c1.3,1.5,2.7,3,4.1,4.5s2.9,3.1,4.5,4.7c0.2,0,0.6-0.1,1.1-0.1s1.1,0,1.8-0.1C81,45.5,81,46,81,46.6L80.9,48
		c-0.3,0.2-0.7,0.3-1.2,0.4h-0.2h0.2c-0.2,0-0.9,0-2,0.1c-1.3,0-2.6,0.1-4,0.1s-2.9,0.2-4.5,0.3c0-0.3,0.1-0.5,0.1-0.8
		c0.1-0.2,0.1-0.5,0.1-0.7c0-0.8,0.1-1.3,0.2-1.5c0.6-0.1,1.1-0.2,1.7-0.1c0.6,0,1.2,0,1.8,0.1c0-0.1,0-0.2-0.2-0.4
		c-0.1-0.2-0.3-0.5-0.4-0.7c-0.2-0.3-0.3-0.5-0.5-0.7s-0.3-0.3-0.3-0.4c-0.3-0.3-0.5-0.5-0.8-0.8S70.3,42.3,70,42
		c-0.3-0.3-0.7-0.7-1.1-1c-0.4-0.4-0.9-0.8-1.5-1.3c-0.3,0.4-1.1,1.4-2.5,3c-0.6,0.7-1,1.4-1.4,2s-0.7,1.1-1,1.6
		c0.4,0.2,0.9,0.3,1.4,0.3c0.3,0,0.9-0.1,1.6-0.3c0.1-0.1,0.2-0.1,0.3-0.1c0.1,0,0.2,0,0.3,0c0,0.1,0,0.4,0.1,0.6
		c0,0.3,0.1,0.6,0.2,1c0.1,0.3,0.1,0.5,0.1,0.7s0,0.3,0,0.4c-5.4,0.8-8.8,1.3-10.2,1.3c-0.2-0.2-0.4-0.6-0.5-1.2
		c-0.1-0.5-0.3-1.2-0.4-2.1c0.3-0.1,0.6-0.1,0.9-0.1c0.7,0,1.1,0,1.4,0l3.8-4.7c1.6-1.7,2.8-3.2,3.8-4.5c-0.8-1-2.1-2.2-3.9-3.6
		c-1.2-0.9-2.1-1.7-2.8-2.2s-1.1-0.9-1.4-1.1c-0.1,0-0.3,0-0.5,0s-0.4,0.1-0.6,0.1C55.6,30.9,55.2,31,55,31c-0.4,0-0.7,0-1-0.1
		c0-0.1,0-0.3,0-0.5s0-0.4,0.1-0.6c0-0.2,0.1-0.4,0.1-0.6s0-0.4,0-0.6c2.3-0.2,6.1-0.7,11.3-1.4c0.3,0.9,0.5,1.8,0.6,2.6
		c-0.2,0.1-0.4,0.2-0.8,0.2c-0.1,0-0.1,0-0.2,0s-0.2,0-0.4,0H64c-0.5,0-0.8,0.1-1,0.3c0.5,0.7,1.1,1.4,2.1,2.3l2.3,2.1l2-2.3
		c0.8-1,1.4-1.8,1.8-2.5c-0.2-0.1-0.5-0.2-0.9-0.1c-0.6,0.1-0.9,0.1-1,0.1c0-0.2,0-0.5,0-0.7c0-0.3,0-0.4,0-0.5c0-0.2,0-0.4-0.1-0.6
		C69,27.8,69,27.5,69,27.2c0.2,0,0.5-0.1,0.9-0.1s1-0.1,1.8-0.2c1.2-0.1,2.1-0.2,2.9-0.3c0.7-0.1,1.3-0.1,1.6-0.2
		C77.4,26.3,78.4,26.3,79.1,26.4z"/>
	<path class="st1" d="M101.9,24.9c0.3,2.8,0.3,5.2,0,7.4c-0.1,0-0.2,0-0.3,0.1c-0.2,0-0.7-0.1-1.4-0.2C99.4,32,98.9,32,98.9,32
		c0-0.4,0-0.8,0-1.2c-0.1-0.6-0.2-1.2-0.3-1.6c-0.2-0.4-0.5-0.8-0.9-1.3c-0.3-0.1-0.7-0.2-1.1-0.2c-0.5,0-1-0.1-1.6-0.1
		s-1.2,0-1.8,0.1c-0.6,0-1.2,0.1-1.7,0.1C90.8,27.9,90,28,89,28.1c0,0.3,0.1,0.6,0.1,1.1s0,1.1-0.1,1.8c0,0.8-0.1,1.4,0,2
		c0,0.6,0,1.1,0.1,1.5c0.7,0.2,1.5,0.3,2.2,0.3s1.4-0.1,2.1-0.1v-1.9c0.1-0.4,0.1-0.8,0-1.1c0.5-0.1,0.9-0.2,1.3-0.2s0.8,0,1.2,0.1
		c0.1,0.1,0.1,1.3,0.1,3.5c0,1.3,0.1,2.4,0.1,3.5c0,1,0,1.9,0,2.7c-1.7,0.2-2.7,0.2-2.9,0c0.2-0.6,0.3-1.2,0.4-1.9s0-1.2-0.1-1.6
		c-0.3,0-0.7,0-1.2,0c-0.7,0-1.2,0-1.5,0c-0.8,0.1-1.2,0.3-1.4,0.8c0,0.8,0,1.5,0,2c0,0.6,0,1.1,0.1,1.5c0.1,1,0.3,1.8,0.6,2.3
		c0.3,0.5,0.8,0.9,1.4,1c0.7,0,1.5,0,2.2,0s1.5-0.1,2.2-0.1c2.2-0.2,3.6-0.5,4.4-0.9c0.1-0.1,0.2-0.4,0.2-0.7s0-0.7,0.1-1.1
		l-0.2-1.9c0-0.1,0-0.3,0-0.4c0-0.1,0.1-0.2,0.1-0.3c0.3,0,0.6-0.1,1-0.1s0.9-0.1,1.4-0.2c0,0.2,0.1,0.4,0.1,0.5s0,0.3,0.1,0.5
		c0.1,1.1,0.1,2.1,0.1,3.2c0,1.1-0.1,2.2-0.2,3.4c-1.2-0.1-2.4-0.1-3.6,0c-1.3,0-2.6,0.1-3.9,0.2c-0.7,0.1-1.5,0.1-2.6,0.3
		c-1,0.1-2.3,0.3-3.7,0.5c-1.4,0.1-2.7,0.3-3.8,0.3c-1.1,0.1-2.1,0.2-2.9,0.2c-0.1-0.2-0.2-0.7-0.2-1.3v-1.3c0-0.1,0.6-0.2,1.6-0.3
		c0.2,0,0.4-0.1,0.7-0.1c0.2,0,0.5,0,0.8,0c0.2-0.9,0.2-2.3,0-4.3c0-0.6-0.1-1.2-0.2-1.9s-0.2-1.4-0.3-2.2c-0.1-1.2-0.1-2.3-0.2-3.3
		s-0.1-1.9-0.2-2.6c-0.1-0.7-0.1-1.3-0.1-1.8s0-0.9,0-1.3c-0.1,0-0.3,0-0.5,0.1c-0.2,0-0.4,0.1-0.7,0.2c-0.2,0.1-0.4,0.1-0.6,0.2
		c-0.2,0-0.3,0.1-0.5,0.1c-0.4,0-0.7-0.1-0.9-0.3c-0.1-0.4-0.1-0.8-0.2-1.2c-0.1-0.4-0.1-0.8-0.1-1.2c1.4-0.1,3.8-0.3,7.3-0.5
		C91.6,25.4,96.2,25.2,101.9,24.9z"/>
	<path class="st1" d="M105.9,46.7c-0.1-0.2-0.2-0.4-0.3-0.6c-0.1-0.2-0.1-0.4-0.1-0.5c0-0.2-0.1-0.3-0.1-0.5s-0.1-0.4-0.2-0.6
		l1.9-0.1c1.1,0,1.7-0.2,2-0.5c-0.5-5.3-1.1-10.9-1.8-16.9c-1.1,0.4-2.3,0.5-3.7,0.5l-0.1-2.7c1.7-0.2,3.1-0.3,4.3-0.4
		c7.9-0.6,13.4,0.1,16.4,2.2c1.9,1.3,2.9,3.9,3.2,7.6c0.1,1.7,0.1,3.5-0.1,5.2c-0.2,1.5-0.4,2.4-0.8,3c-1,1.5-2.8,2.5-5.2,2.9
		c-0.5,0.1-1.3,0.2-2.6,0.3c-1.3,0.1-3,0.3-5.2,0.5s-4,0.4-5.2,0.5C107,46.5,106.2,46.6,105.9,46.7z M118.4,43
		c0.6-0.1,1.2-0.2,1.7-0.3s0.9-0.3,1.3-0.6s0.9-0.7,1.4-1.2s0.9-1.1,1.4-1.9c0.3-0.9,0.5-1.9,0.4-3.1c-0.1-0.7-0.2-1.4-0.4-2.2
		c-0.2-0.8-0.5-1.5-0.8-2.3c-0.6-1.2-1.2-2.2-2-3c-0.4-0.4-0.8-0.7-1.3-1s-1.2-0.5-2-0.7c-1.4-0.3-2.7-0.4-4-0.3
		c-1.1,0.1-1.8,0.2-2.1,0.5c0,0.6,0.1,1.2,0.2,1.8c0.1,0.6,0.2,1.3,0.3,2c0.1,0.7,0.2,1.4,0.3,2.2c0.1,0.8,0.1,1.6,0.1,2.5l0.2,7.7
		h0.6c0.5,0,0.9-0.1,1.3-0.1s0.8,0,1.2,0c0.4,0,0.8,0,1.2,0C117.5,43.1,118,43,118.4,43z"/>
	<path class="st1" d="M50.3,74.8c0.4,0.2,0.8,0.4,1.1,0.5s0.7,0.2,1.1,0.3c0.4,0.1,0.8,0.3,1.3,0.5c0.5,0.3,1.1,0.7,1.8,1.3
		c0.7,0.7,1.2,1.5,1.5,2.5s0.4,2,0.5,3c0,0.5,0,1-0.2,1.5s-0.4,1-0.6,1.4S56.3,86.6,56,87c-0.3,0.4-0.6,0.7-0.8,1
		c-0.4,0.7-1,1.2-1.9,1.7c-0.8,0.4-1.7,0.8-2.5,1c-0.3,0.1-0.8,0.2-1.4,0.3c-0.6,0.1-1.3,0.2-2,0.4c-0.7,0.1-1.5,0.2-2.2,0.3
		c-0.8,0.1-1.4,0.1-2,0.1c-0.5,0-1.2,0-2.2,0c-0.9,0-1.9,0.1-2.9,0.2s-1.9,0.1-2.7,0.2s-1.3,0.1-1.6,0.1c-2.2,0.2-3.9,0.2-5,0
		c0-2.3,0-3.5,0.1-3.7c0.5,0,1-0.1,1.5-0.1s1.2,0,1.8,0c0.1-0.3,0.2-1.1,0.3-2.2c0.1-1.2,0-2.8,0-5c0-1.7,0-3.5-0.1-5.2
		c-0.1-1.8-0.2-3.6-0.3-5.5c-0.1-1.1-0.2-2-0.2-2.5c-0.1-0.5-0.1-0.9-0.3-1c-0.5,0.1-1.1,0.3-1.7,0.6c-0.6,0.2-1,0.4-1.4,0.4
		c-0.1,0-0.2,0-0.3,0c-0.1,0-0.2,0-0.3-0.1c0-0.5-0.1-1-0.1-1.6s-0.1-1.2-0.2-1.9c0.9-0.6,3.4-1,7.4-1.4c2.5-0.2,4.9-0.3,7.2-0.4
		c2.2,0,4.3,0.1,6.2,0.4c1.3,0.2,2.4,0.4,3.3,0.7c0.9,0.3,1.6,0.6,2.2,0.9c0.6,0.4,1,0.7,1.2,1.2c0.3,0.4,0.4,0.9,0.4,1.4
		c0.1,1.1-0.1,2.2-0.5,3.1s-0.9,1.6-1.4,2.1c-0.3,0.2-0.5,0.4-0.8,0.6c-0.3,0.1-0.5,0.3-0.8,0.4s-0.5,0.3-0.8,0.5
		C50.9,74.3,50.6,74.5,50.3,74.8z M37.5,66.5c-0.3,2.6-0.3,5.1-0.1,7.5l0.1,1.1c0.3,0,0.6,0,0.8,0s0.5,0,0.8-0.1
		c1.2-0.1,2.2-0.2,3.1-0.5c0.9-0.2,1.8-0.5,2.7-0.8c1.5-0.5,2.7-1,3.6-1.6c0.9-0.6,1.3-1.3,1.2-2.1c-0.1-1.7-0.8-2.9-2.1-3.6
		c-1.2-0.7-3-1-5.2-0.8C41.3,65.7,39.6,66,37.5,66.5z M39,88.1c0.4,0.2,0.8,0.4,1.1,0.5s0.6,0.2,0.9,0.2c0.3,0,0.6,0,0.9,0
		c0.3,0,0.6-0.1,0.9-0.1c0.1,0,0.4,0,0.8-0.1c0.4,0,0.8-0.1,1.3-0.1s0.9-0.1,1.3-0.1c0.4,0,0.7-0.1,0.8-0.1c0.6,0,1.2-0.2,1.8-0.4
		c0.6-0.2,1.1-0.6,1.6-1c0.4-0.5,0.8-1.1,1-1.9s0.3-1.8,0.2-2.9c-0.1-1.8-1.1-3-3-3.7s-4.5-0.9-7.9-0.7c-0.2,0-0.5,0-1,0.1
		c-0.4,0-1,0.1-1.7,0.2c0.2,1,0.3,2.3,0.5,4C38.6,83.5,38.8,85.6,39,88.1z"/>
	<path class="st1" d="M79.9,60.3c1.1,0.5,2,1.1,2.9,1.8s1.6,1.6,2.2,2.6s1.1,2.1,1.4,3.3c0.3,1.2,0.6,2.4,0.7,3.7
		c0.1,0.5,0.1,0.9,0.2,1.4s0.1,1,0.1,1.6c0.2,3.2,0.1,5.7-0.6,7.6c-0.6,1.9-1.4,3.1-2.4,3.7c-1.3,0.9-2.7,1.7-4.2,2.2
		c-1.5,0.6-3.3,0.9-5.3,1.1c-1.7,0.1-3.3,0.1-5,0c-1.3-0.1-2.6-0.4-3.8-0.9c-1.2-0.5-2.3-1.2-3.3-2.1s-1.8-1.9-2.5-3.2
		c-0.7-1.2-1.1-2.6-1.2-4.1c-0.6-6-0.2-10.3,1.4-12.7c1.1-1.7,2.6-3.2,4.5-4.6c2.4-1.6,4.9-2.6,7.5-2.8C75,58.6,77.5,59.1,79.9,60.3
		z M77.8,84.9c1.3-0.5,2.3-1.3,2.8-2.4c0.3-0.6,0.6-1.2,0.7-2c0.2-0.8,0.3-1.6,0.2-2.6c0-1,0-2,0-3c0-0.9,0-1.7-0.1-2.3
		c-0.2-2.3-0.6-4.2-1.4-5.6c-0.7-1.4-1.7-2.5-2.8-3.2c-1.4-0.5-2.8-0.8-4.1-0.7c-2.5,0.2-4.7,1.5-6.5,4c-1.3,1.8-2.1,3.3-2.3,4.6
		c-0.1,1.1-0.1,2.3,0,3.3c0.3,3.5,1.2,6.3,2.7,8.3c1.6,2,3.7,2.8,6.2,2.4c1.1-0.2,2-0.4,2.8-0.5C76.9,85.2,77.4,85,77.8,84.9z"/>
	<path class="st1" d="M120.6,56.4c0,0.2,0,0.4,0,0.5c0,0.2,0.1,0.4,0.1,0.7c0.1,0.3,0.1,0.5,0.1,0.7c0,0.4-0.1,0.8-0.2,1.1
		c-0.4,0.1-1.1,0.2-2,0.3l-0.9,0.1c-0.8,0.1-1.4,0.1-1.8,0.3c-0.3,0.5-0.8,1.1-1.5,1.8s-1.5,1.7-2.5,2.8c-0.9,1-1.7,1.9-2.3,2.7
		c-0.6,0.8-1.1,1.5-1.5,2.1c1.7,1.9,3.5,3.9,5.4,5.9s3.8,4.1,5.9,6.1c0.3-0.1,0.8-0.1,1.4-0.1s1.4-0.1,2.3-0.1
		c-0.1,0.3-0.2,0.9-0.2,1.8L123,85c-0.4,0.2-0.9,0.4-1.5,0.5h-0.2h0.2c-0.3,0-1.2,0.1-2.6,0.1c-1.7,0.1-3.4,0.1-5.3,0.2
		c-1.8,0.1-3.8,0.2-5.9,0.4c0-0.4,0.1-0.7,0.2-1s0.1-0.6,0.1-0.9c0-1,0.1-1.7,0.3-1.9c0.7-0.1,1.5-0.2,2.3-0.2s1.6,0.1,2.4,0.1
		c0-0.1,0-0.3-0.2-0.6c-0.2-0.3-0.3-0.6-0.6-0.9c-0.2-0.3-0.4-0.6-0.6-0.9s-0.3-0.4-0.4-0.5c-0.4-0.4-0.7-0.7-1.1-1.1
		c-0.4-0.3-0.8-0.7-1.2-1.1c-0.4-0.4-0.9-0.9-1.5-1.4c-0.5-0.5-1.2-1.1-1.9-1.7c-0.4,0.5-1.5,1.8-3.2,3.9c-0.7,0.9-1.3,1.8-1.9,2.5
		c-0.5,0.8-1,1.5-1.3,2.1c0.5,0.3,1.1,0.4,1.8,0.4c0.4,0,1.1-0.2,2.1-0.5c0.1-0.1,0.3-0.1,0.4-0.1c0.2,0,0.3,0,0.4,0
		c0,0.2,0,0.5,0.1,0.8c0,0.4,0.1,0.8,0.2,1.3c0.1,0.4,0.1,0.7,0.2,0.9c0,0.2,0,0.4,0,0.5c-7,1.1-11.4,1.7-13.3,1.7
		c-0.2-0.3-0.5-0.8-0.7-1.5s-0.4-1.6-0.5-2.7c0.4-0.1,0.8-0.2,1.2-0.2c0.9,0,1.5,0,1.8,0l4.9-6.1c2.1-2.2,3.7-4.2,4.9-5.9
		c-1-1.3-2.7-2.9-5.1-4.7c-1.5-1.2-2.7-2.2-3.6-2.9c-0.9-0.7-1.5-1.2-1.8-1.5c-0.2,0-0.4,0-0.6,0s-0.5,0.1-0.8,0.1
		c-0.7,0.1-1.2,0.2-1.4,0.2c-0.5,0-0.9,0-1.3-0.1c0-0.2,0-0.4,0-0.7s0.1-0.6,0.1-0.8c0-0.3,0.1-0.5,0.1-0.8s0-0.5,0-0.7
		c3-0.3,8-0.9,14.8-1.8c0.4,1.2,0.7,2.3,0.7,3.4c-0.2,0.1-0.6,0.2-1.1,0.2c-0.1,0-0.2,0-0.3,0c-0.1,0-0.3,0-0.5,0l-0.7,0.1
		c-0.6,0-1.1,0.2-1.3,0.4c0.6,0.9,1.5,1.9,2.7,3l2.9,2.7l2.6-3.1c1.1-1.3,1.9-2.3,2.4-3.2c-0.2-0.1-0.6-0.2-1.2-0.2
		c-0.8,0.1-1.2,0.2-1.3,0.1c0-0.3,0-0.6,0-0.9c0-0.3,0-0.6,0-0.7c0-0.2-0.1-0.5-0.1-0.8c-0.1-0.3-0.1-0.7-0.2-1.1
		c0.3-0.1,0.7-0.1,1.2-0.1s1.3-0.1,2.4-0.2c1.5-0.2,2.8-0.3,3.7-0.4c1-0.1,1.7-0.2,2.1-0.2C118.5,56.4,119.7,56.3,120.6,56.4z"/>
</g>
<g>
	<path class="st1" d="M55.3,128.5c4.3,0.5,40.7,0.2,42.1-0.5c1.4-0.7-0.8-19.4-0.8-19.4"/>
	<path class="st1" d="M96.8,108.5l-41.7,0.2c0,0-0.9,18.6,0.2,19.8"/>
	<path class="st1" d="M75.4,99.6c0,0-0.4,2.1-1.5,4.8c-8.9,3.2-18.1,2.7-18.6,2.6l0,0l4.8-2.9C60.1,104.2,73.3,102.3,75.4,99.6"/>
	<path class="st1" d="M76.2,99.1l2.1,4.9c9,3.6,18,3,18.7,2.9l0,0l-4.7-3l0,0C81,101.8,76.2,99.1,76.2,99.1"/>
</g>
</svg>
