<svg version="1.1" id="Layer_1" xmlns="http://www.w3.org/2000/svg" x="0" y="0" viewBox="-407 581.5 25.2 29" xml:space="preserve"><style>.st1{fill:#537fa4}</style><path d="M-381.8 597.5c0-1.4-.2-2.8-.4-4.2-.1-.6-.2-1.2-.3-1.9-.1-.3-.1-.6-.2-.9 0-.2-.1-.3-.1-.5-.1-.5-.1-.6-.1-.3 0-.1 0-.2-.1-.3-.3-1.6-.6-3.3-1.7-4.6-1.7-1.9-4.5-2.7-7-3-3-.3-6.2.3-8.9 1.7-1.3.8-2.6 1.9-3.5 3.2-1.3 1.7-1.9 3.9-2.3 6.3-.4 2.1-.7 4.7-.6 7.1.1 2.4.4 5.1 1.8 7.1.9 1.2 2.2 2 3.6 2.4 1.7.6 3.5.9 5.3 1 3.3.2 7 0 10.1-1.4 1.6-.7 2.4-2.1 3.1-3.6 1.1-2.6 1.4-5.4 1.3-8.1z" fill="#fff"/><g id="_x2E_svg_34_"><path class="st1" d="M-390.8 593.7h1.8c.4 0 .7-.3.7-.7v-1.7c0-.4-.3-.7-.7-.7h-1.8c-.4 0-.7.3-.7.7v1.7c0 .4.3.7.7.7zM-389.4 596.9c0 2.6-2.2 4.8-4.9 4.8s-4.9-2.1-4.9-4.8c0-.5.1-.9.2-1.4h-1.6v6.7c0 .3.3.6.6.6h11c.3 0 .6-.3.6-.6v-6.7h-1.4c.3.4.4.9.4 1.4z"/><ellipse class="st1" cx="-394.4" cy="596.7" rx="3.2" ry="3.1"/><path class="st1" d="M-381.8 597.3c0-1.4-.2-2.8-.4-4.2-.1-.6-.2-1.2-.3-1.9-.1-.3-.1-.6-.2-.9 0-.2-.1-.3-.1-.5-.1-.5-.1-.6-.1-.3 0-.1 0-.2-.1-.3-.3-1.6-.6-3.3-1.7-4.6-1.7-1.9-4.5-2.7-7-3-3-.3-6.2.3-8.9 1.7-1.3.8-2.6 1.9-3.5 3.2-1.3 1.7-1.9 3.9-2.3 6.3-.4 2.1-.7 4.7-.6 7.1.1 2.4.4 5.1 1.8 7.1.9 1.2 2.2 2 3.6 2.4 1.7.6 3.5.9 5.3 1 3.3.2 7 0 10.1-1.4 1.6-.7 2.4-2.1 3.1-3.6 1.1-2.6 1.4-5.4 1.3-8.1zm-4.7 5.3c0 1.1-.9 2-2 2h-11.8c-1.1 0-2-.9-2-2v-11.8c0-1.1.9-2 2-2h11.8c1.1 0 2 .9 2 2v11.8z"/></g></svg>