<svg version="1.1" id="Layer_1" xmlns="http://www.w3.org/2000/svg" x="0" y="0" viewBox="0 0 37.8 27.5" xml:space="preserve" preserveAspectRatio="xMinYMid"><style>.st0{fill:#888}</style><path class="st0" d="M35.8 10.7C34.8 7.2 34.8 4 34 0c-.4.5-.8.9-1.3 1.4-1.6 1.7-3 3.5-4.4 5.3-1.3 1.7-2.8 3.2-4 4.9-1.1 1.5-1.9 3.3-3 4.8-.2.3-.5.3-.8.1-2.8-2.8-7.1-3.8-10.5-5.6-1.9-1-3.7-2-5.7-2.9C3.2 7.3 1.5 6.4 0 5.9c1 7.6 1.6 13.8 2.8 21.4 11.2-3 23.1-2.5 34.4-5.1.2-.1.5-.1.6-.3.1-.2.1-.4.1-.6-.4-3.6-1.1-7.2-2.1-10.6z"/><path class="st0" d="M9.8 9.5c3.5 1.9 8 3.1 11.1 5.8 1-1.5 1.8-3.1 2.9-4.6 1.1-1.5 2.4-2.8 3.5-4.3 1.3-1.6 2.5-3.3 3.9-4.8.4-.4.8-.8 1.1-1.2-1.9.5-3.7.9-5.6 1.4-8.3 2-16.6 2.5-25.4 3.6l2.1.9c2.2.9 4.3 2 6.4 3.2z"/></svg>