<svg xmlns="http://www.w3.org/2000/svg" width="12.241" height="16.448"><path clip-rule="evenodd" d="M12.2 13.84c0-.1-.1-.1-.1-.1-.3-.4-.8-.7-1.4-1.2-.9-.7-1.6-1.5-2.8-.6h-.1c-.1 0-.1.1-.2.1-.1.1-.2.2-.4.3-1.7.5-2.2-1.5-2.9-2.8-.6-1.2-1.5-2.3-1.6-3.3-.1-.8.2-1.1.5-1.4 0 0 0-.1.1-.1h.2c.2-.1.4-.1.6-.2.4-.2.9-.4 1-1 .1-.5 0-1 0-1.4-.1-1-.2-1.9-1.4-2.1-.5-.1-1.2 0-1.6.2H2c-1 .4-1.8 1.1-2 2.3v1.9c.2 2.9.9 5.2 2.3 7.2 1.2 1.8 2.8 3.9 5 4.6.7.2 1.2.3 2.4.1.9-.1 1.8-.5 2.2-1.2.1-.1.1-.2.2-.4s.2-.5.1-.9z" fill="#888" fill-rule="evenodd"/></svg>