<?xml version="1.0" encoding="utf-8"?>
<!-- Generator: Adobe Illustrator 27.8.0, SVG Export Plug-In . SVG Version: 6.00 Build 0)  -->
<svg version="1.1" id="Layer_1" xmlns="http://www.w3.org/2000/svg" xmlns:xlink="http://www.w3.org/1999/xlink" x="0px" y="0px"
	 viewBox="0 0 40 40" style="enable-background:new 0 0 40 40;" xml:space="preserve">
<style type="text/css">
	.st0{fill:#FFFFFF;}
</style>
<g>
	<path id="Layer_3" class="st0" d="M18.5,29.2c-2.2-0.2-5.4-2.1-5.6-9.5c0-0.8,0-1.6,0.1-2.3c0.2-0.9,0.4-5.2,6.6-5.5
		c4.1,0.1,5.3,7.9,5.3,7.9c1.6-0.8,3.2-1.6,4.6-2.6c0,0,0,0.2,0,0c-0.3-1.3-0.9-2.6-1.6-3.7c-0.9-1.3-2.1-2.4-3.5-3.3
		c-1.5-0.9-3.3-1.4-5-1.4c-1.9,0-3.7,0.5-5.4,1.5c-1.3,0.8-2.5,1.8-3.4,3c-1.2,1.6-1.8,4.4-1.6,8.7c0,2,0.7,3.9,2,5.3
		c3,3.1,4.8,3.6,6.3,3.6c0.6,0,1,0,1.3,0c0.2,0,0.5,0,0.7,0c0,0,0.7-0.1,0.7-0.1c-0.4-0.3-0.6-0.8,0-1.9
		C19.5,29.2,19,29.2,18.5,29.2L18.5,29.2z"/>
	<g id="Layer_2_00000085942297882826053900000010259693705050269620_" transform="translate(10.298 7.79)">
		<path id="_x2E_svg_24_" class="st0" d="M20.2,9.9c-1.5,1.2-3.1,2.3-4.8,3.2c-2.2,1.4-3.9,3.2-4.2,5.9c0.1,0.3,0.3,0.1,0.8-0.5
			c1.4-1.8,2.8-2,4.9-3.1C16.7,17,15.3,17,14,19.6c-0.3,0.7-0.5,1.6,0.6,1.6c6.4-0.4,6.2-4.9,6.2-9.7C20.8,11,20.6,9.9,20.2,9.9z"/>
		<path id="_x2E_svg_11_" class="st0" d="M14.3,17.3c-0.1,0-0.2,0.1-0.3,0.2c-0.9,0.8-1.7,1.6-2.4,2.6c-0.5,0.6-2.1,2.4-1.1,2.5
			c1.5,0,2.8-3.2,3.8-4.8C14.5,17.5,14.5,17.3,14.3,17.3z"/>
	</g>
</g>
</svg>
