<?xml version="1.0" encoding="UTF-8"?>
<svg id="Layer_1" xmlns="http://www.w3.org/2000/svg" version="1.1" viewBox="0 0 40 40">
  <!-- Generator: Adobe Illustrator 29.0.1, SVG Export Plug-In . SVG Version: 2.1.0 Build 192)  -->
  <defs>
    <style>
      .st0 {
        fill: #fff;
      }
    </style>
  </defs>
  <path class="st0" d="M29.8,19.3l-4.1-.3h0c0,0-.1,0-.2,0,0,0,0,0-.1,0h0s0,0,0,0c0,0,0,0-.1-.2,0,0,0-.1,0-.2,0-.4,0-.7,0-1.1v-5.2c0,0-10.2-.1-10.2-.1-.1-1.4-.2-2.9,0-4.4-.5,0-1.5,0-2,0h-.1c0,.2,0,.5,0,.8,0,.2,0,3.3,0,4.5,0,1.2,0,2.4,0,3.7,0,.3,0,.6,0,.9-1.9,0-5.6,0-5.7.2h0c0,.5,0,.8,0,1.2,0,.2,0,1.4,0,1.7,0,.1.1.2.2.3,0,0,.1,0,.2,0,1-.3,2.1-.4,3.2-.4.7,0,1.3,0,2,0,.5,0,1.1.2,1.6.3h0c.1,0,.2.1.3.2.5.3,1,.6,1.4,1,2.3,1.8,2.7,4.1,2.3,7.1,0,0,.9,0,.9,0,1,0,2,0,3,0,1.1,0,2.2,0,3.3,0,.3-1.8,1-4.2,2.5-5.1,1.8-1.1,4.7-.6,6.5-.5.3-1.1.5-2.7.8-3.9,0-.3-4.3-.5-5.3-.5M15.4,17.6c0-.7,0-1.5,0-2.2,0-.2,0-.5.1-.5h2.4v3.8c-.7-.6-1.6-1-2.5-1.1ZM22.9,24.8c-.7-1.8-1.8-3.3-3.1-4.7,0-1.1.2-4,.2-5.1,1,0,1.9,0,2.9,0,0,.6,0,1.1,0,1.7v8.1Z"/>
  <path class="st0" d="M14.7,22.6h0c-1.1-.8-2.3-1.2-3.6-1.2,0,0-.1,0-.2,0-1,0-1.9.3-2.8.8-.8.5-1.6,1.1-2.1,1.9-.5.8-.9,1.7-1,2.7-.1,1,0,1.9.3,2.8.2.6.4,1.2.8,1.8.9,1.1,2.1,1.8,3.5,2.1,1.3.3,2.8.2,4-.4.7-.3,1.4-.7,1.9-1.3,2.5-2.5,2.4-7.5-.9-9.2M11.1,29.1c-.2,0-.4,0-.6,0-.2,0-.4,0-.6-.2-.3-.2-.6-.5-.7-.8-.2-.3-.2-.7-.1-1.1,0-.2,0-.3.2-.4.1-.3.3-.5.6-.6.5-.2,1-.2,1.4,0,.2,0,.4.2.6.3.2.1.3.3.4.5.2.3.2.6.2.9-.2,1-.6,1.3-1.3,1.4"/>
  <path class="st0" d="M34.3,26c-.7-.7-1.6-1.2-2.6-1.3-1-.1-2,.1-2.9.6-.9.4-1.6,1.2-1.9,2.1-.4.9-.4,1.9-.1,2.8.2.7.6,1.3,1,1.9.5.5,1.1.9,1.8,1.2.7.3,1.4.4,2.1.3.7,0,1.4-.3,2-.7.6-.4,1-.8,1.4-1.4.3-.6.6-1.2.6-1.9,0-.7,0-1.3-.3-2-.2-.6-.6-1.2-1.1-1.6M32,30.2c-.2.2-.5.3-.8.3-.1,0-.2,0-.3,0-.2,0-.4-.2-.5-.4-.1-.2-.2-.4-.2-.6,0-.6.1-1.2.7-1.3,0,0,.1,0,.2,0,.7-.2,1.1.3,1.2.9,0,.2,0,.4,0,.6,0,.2,0,.4-.2.5"/>
</svg>