<svg version="1.1" id="Layer_1" xmlns="http://www.w3.org/2000/svg" x="0" y="0" viewBox="0 0 50.5 58.5" xml:space="preserve"><style>.st0{fill:#00aced}.st3{fill:#fff}</style><path class="st0" d="M-23.5 33.9c-.1-2.8-.3-5.7-.8-8.5-.2-1.2-.4-2.5-.6-3.7l-.3-1.8c-.1-.3-.1-.6-.2-.9-.2-1-.3-1.2-.1-.6 0-.2-.1-.4-.1-.6-.7-3.3-1.1-6.7-3.4-9.3-3.5-3.9-9-5.5-14.1-6-6.2-.7-12.5.5-17.9 3.4-2.8 1.6-5.3 3.8-7.3 6.4-2.6 3.4-3.9 7.8-4.7 12.6-.7 4.2-1.2 9.4-1 14.2.2 4.7.8 10.2 3.6 14.1 1.7 2.4 4.5 3.9 7.2 4.9 3.4 1.2 7 1.8 10.6 2 6.7.4 14.1 0 20.2-2.9 3.1-1.4 4.9-4.2 6.3-7.3 2.2-4.9 2.7-10.6 2.6-16zm-5-3.3c-1 .5-3 .9-3.3 1.7-.1.2-.2.5-.2.7-.7 1.9-1.7 3.8-3 5.4-1.3 1.5-2.7 3.1-4.4 4.2-1.8 1.2-3.9 1.6-6 1.7-2 .1-4 .2-6-.1-7.4-1.2-13-6.2-16.6-12.5-.5-.9-1.1-2.5-.8-2.2.9 1 2 1.7 3.1 2.5 1 .8 2.1 1.4 4 1.9 8.4 2.4 12.2-2 12.2-2-.3-.4-.6-.7-.9-1.1-.9-1.1-1.8-2.1-2.9-3.1-.9-.8-1.5-1.3-2.3-2.2-.2-.2-.5-1.4-.1-1.2.3.1.6.3.9.4-.2-.2-.1-.3-.2-.5s-.4-1.4 0-1.2c.5.3.9.6 1.3 1-.4-.7-.7-1.4-.7-2.2 0-.1-.1-.6.1-.6 1.2.3 2.3 1.8 3.1 2.6.3.3.6.6.9.8 0-.1.1-.2.2-.2.4.2.8.3 1.2.4-.2-.4-.5-.7-.7-1.1-.1-.2-.3-1.4 0-1.1.3.3.8.7 1.1.9-.3-.5-.7-1.1-.9-1.7-.1-.1-.4-1.3-.1-1 1.2 1 2.7 2.1 4 3 .6.4 2.3 1.6 3.4 1.7.8-.7 1.7-1.4 2.6-1.8 1.4-.7 2.9-1.1 4.4-.6 1.2.4 2.2 1.1 2.9 2.2.3.5.8 1.9 1 2.4 1.6.3 2 .2 3.3.5.3.1-2.8 1-3.3 1.3-.4.2 2.9.9 2.7 1.1z"/><path class="st0" d="M-34.9 26.2h-.3c-1.2.5-1.9 3.4.2 3.3 2.2-.1 1.5-3.2.1-3.3z"/><path d="M-32.8 35.7c-.1-2.8-.3-5.7-.8-8.5-.2-1.2-.4-2.5-.6-3.7l-.3-1.8c-.1-.3-.1-.6-.2-.9-.2-1-.3-1.2-.1-.6 0-.2-.1-.4-.1-.6-.7-3.3-1.1-6.6-3.4-9.2-3.5-3.9-9-5.5-14.1-6-6-.6-12.4.5-17.7 3.5-2.8 1.6-5.3 3.8-7.3 6.4-2.6 3.4-3.8 7.8-4.7 12.6-.7 4.2-1.2 9.4-1 14.2.1 4.5.7 9.9 3.5 13.9 1.7 2.4 4.5 3.9 7.2 4.9 3.4 1.2 7 1.8 10.6 2 6.7.4 14.1 0 20.2-2.9 3.1-1.4 4.9-4.2 6.3-7.3 2.1-4.9 2.6-10.6 2.5-16zm-19.8 7.8c-2.6 0-5-1.3-5.8-2.9 0 0-1.3 4.9-1.6 6-.6 2.2-2.1 5-3.2 6.7l-1.1 1.7-.6-2.3c-.2-2-.4-5.1.1-7.3.5-2 3-12.6 3-12.6s-.8-1.5-.8-3.8c0-3.5 2-6.2 4.6-6.2 2.2 0 3.2 1.6 3.2 3.6 0 2.2-1.4 5.4-2.1 8.5-.6 2.5 1.3 4.6 3.8 4.6 4.5 0 8-4.8 8-11.6 0-6.1-4.4-10.3-10.6-10.3-7.2 0-11.5 5.4-11.5 11 0 2.2.8 4.5 1.9 5.8.2.3.2.5.2.7-.2.8-.6 2.5-.7 2.9-.1.5-.4.6-.8.3-3.2-1.5-5.2-6.1-5.2-9.8 0-8 5.8-15.4 16.8-15.4 8.8 0 15.7 6.3 15.7 14.7-.1 8.7-5.6 15.7-13.3 15.7z" fill="#cb2027"/><g><path d="M50.4 31.8c-.1-2.8-.3-5.6-.8-8.4-.2-1.2-.4-2.4-.6-3.7l-.3-1.8c-.1-.3-.1-.6-.2-.9-.2-1-.3-1.2-.1-.6 0-.2-.1-.4-.1-.6-.7-3.3-2.5-6.8-4.8-9.3C40 2.8 35.9 1.4 31 .9c-6-.6-12.2.5-17.5 3.4-2.8 1.6-5.2 3.7-7.2 6.3-2.6 3.3-3.8 7.7-4.6 12.4C1 27.1.5 32.3.7 37c.2 4.6 1.6 9.3 4.4 13.2 1.7 2.4 3.6 4.5 6.2 5.5 3.4 1.2 6.9 1.8 10.4 2 6.6.4 13.9.3 19.3-3.6 2.9-2 5.4-3.4 6.8-6.4 2.2-5 2.7-10.5 2.6-15.9z" fill="#b00"/><path class="st3" d="M22.4 15.4c0 .1.1.3.1.4 0 .2 0 .4-.1.7-.1.2-.1.4-.2.7h-1c-.6.6-1.2 1.2-1.8 1.7-1.1 1.1-1.8 1.8-2 2.1-.3.4-.4 1.3-.5 2.7 0 .7-.1 1.4-.1 2.1.2.2.5.3.9.3.5 0 .9-.1 1.4-.3.1.2.1.5.1 1 0 .4 0 .6-.1.7-.7.1-1.5.2-2.5.2h-4c-.2-.6-.3-1-.3-1.3v-.3c.2-.1.5-.2.9-.2.5 0 .8 0 1-.1.1-1.6.3-2.8.5-3.4-.1-.1-.8-.9-2.1-2.3-1.4-1.6-2.2-2.5-2.5-2.9H8.8v-.8-.8h7.1c0 .4 0 .9-.1 1.4H14c-.3 0-.5 0-.7.1.3.6.6 1.2 1 1.7.2.2.6.7 1.4 1.6.5-.3 1.1-.9 1.6-1.6.4-.6.9-1.3 1.3-1.9h-.3c-.1 0-.4 0-.7.1-.3.1-.6.1-.8.1-.1 0-.3 0-.4-.1 0-.1-.1-.3-.1-.4 0-.3.1-.6.2-1 .4-.1 1.4-.1 2.9 0s2.4 0 3-.2zM30.2 20c.7 1 1.1 2.1 1.1 3.3 0 1.2-.4 2.3-1.2 3.1-.9.9-2 1.3-3.4 1.3-.3 0-.7 0-1-.1-1-.2-1.8-.7-2.5-1.5-.7-.9-1-1.8-1-2.9 0-.5.1-1.1.3-1.6.3-.8.9-1.5 1.7-2 .8-.5 1.7-.7 2.7-.7 1.3 0 2.4.4 3.3 1.1zm-2.6.2c-.2-.1-.5-.2-.7-.2-.8 0-1.4.5-1.9 1.6-.4 1-.5 2-.2 3 .3 1.1.9 1.6 1.9 1.6.4 0 .8-.1 1.3-.3.5-.6.8-1.4.8-2.4 0-.7-.1-1.3-.3-1.9-.2-.6-.5-1.1-.9-1.4zM35 19.7c0 .4 0 1.1-.1 2.1-.1 1.1-.2 1.9-.2 2.4 0 .6.1 1.1.2 1.5.1.2.3.4.6.6.3.2.7.3 1.1.3.2 0 .4 0 .7-.1.8-.2 1.3-.8 1.5-1.9.1-.4.2-1.5.2-3.3 0-.3-.3-.4-.8-.4h-.6c-.3 0-.5 0-.6-.1-.1-.1-.2-.3-.2-.6s.1-.6.2-.8c.4 0 .9 0 1.5.1.7.1 1.2.1 1.4.1h.6c.1.2.2.4.2.7 0 .2 0 .5-.1.9s-.1.8-.2 1c-.1 1.4.1 2.9.5 4.4h.5c.2 0 .3-.1.4-.1.1 0 .2 0 .2.1.2.3.3.5.3.7 0 .1 0 .2-.1.3-.4.2-.9.2-1.8.1-.7-.1-1.3 0-1.6.3-.3-.3-.4-.7-.3-1.3-1.2.8-2.3 1.2-3.5 1.2-.5 0-.9-.1-1.2-.3-.6-.3-.9-1-.9-2.1 0-.3 0-.8.1-1.5s.1-1.2.1-1.5c0-1-.2-1.7-.7-2-.1 0-.3 0-.5.1s-.3.1-.5.1c-.2-.4-.2-.8 0-1.2.4.1 1 .1 1.8.1s1.4 0 1.8.1zM17.5 30.8c0 .1.1.8 0 2.2 0 1.4-.1 2.5-.2 3.4-.8-.2-1.5-.4-2-.6.1-.3.2-.6.2-.9 0-.6-.2-1.2-.7-1.7-.4-.5-1-.7-1.6-.7h-.4c-.1 1.8-.1 3.2-.1 4.2 0 1.7.1 3.3.3 4.6.4 0 .8 0 1.2.1.4 0 .7.1.9.1-.1 1-.1 1.6-.2 1.9h-3.2c-1.5 0-2.6-.1-3.3-.1-.1-.2-.2-.5-.2-.7v-.5-.8c1.3 0 2 0 2.3.1.1-.5.2-1.5.2-2.8 0-1.1 0-2.4-.1-3.9-.1-1.2-.1-1.9-.2-2.1-.2 0-.3-.1-.5-.1-1.3 0-2 1.2-2.3 3.5H6.4c-.2 0-.4 0-.6-.1v-.7c0-.4 0-1-.1-1.8s-.1-1.4-.1-2c.5-.4 1.9-.6 4.4-.6h5.3c1.4.2 2.1.1 2.2 0z"/><path class="st3" d="M21 35.3c0 .4 0 1.1-.1 2.1-.1 1.1-.2 1.9-.2 2.4 0 .6.1 1.1.2 1.5.1.2.3.4.6.6s.7.3 1.1.3c.2 0 .4 0 .7-.1.8-.2 1.3-.8 1.5-1.9.1-.4.2-1.5.2-3.3 0-.3-.3-.4-.8-.4h-.6c-.3 0-.5 0-.6-.1-.1-.1-.2-.3-.2-.6s.1-.6.2-.8c.4 0 .9 0 1.5.1.7.1 1.2.1 1.4.1h.6c.1.2.2.4.2.7 0 .2 0 .5-.1.9s-.1.8-.2 1c-.1 1.4.1 2.9.5 4.4h.5c.2 0 .3-.1.4-.1.1 0 .2 0 .2.1.2.3.3.5.3.7 0 .1 0 .2-.1.3-.4.2-.9.2-1.8.1-.7-.1-1.3 0-1.6.3-.3-.3-.4-.7-.3-1.3-1.2.8-2.3 1.2-3.5 1.2-.5 0-.9-.1-1.2-.3-.6-.3-.9-1-.9-2.1 0-.3 0-.8.1-1.5s.1-1.2.1-1.5c0-1-.2-1.7-.7-2-.1 0-.3 0-.5.1s-.3.1-.5.1c-.2-.4-.2-.8 0-1.2.4.1 1 .1 1.8.1s1.4 0 1.8.1zM30.3 31.3c0 .2.1.8 0 1.7 0 1 0 1.7.1 2.2.6-.3 1.3-.5 2.2-.5 1.4 0 2.5.4 3.2 1.1.5 1 .8 2.1.8 3.3 0 1.6-.4 2.8-1.3 3.5-.8.4-1.6.6-2.4.6-1.4 0-2.4-.5-3-1.5 0 .4 0 .8-.1 1.4-.2.1-.5.1-1-.1-.1-1.1-.1-2.8-.1-5.2.1-2.2 0-4-.2-5.2-.2-.1-.6-.1-1.3-.1 0-.2-.1-.3-.1-.5 0-.5.4-.8 1.2-.8h1c.4.2.7.2 1 .1zm.5 5.5c-.4.7-.5 1.5-.5 2.4 0 .8.2 1.5.5 2 .4.6.9.9 1.6.9h.3c.6-.1 1-.4 1.3-1 .3-.5.4-1.2.4-2 0-.9-.2-1.7-.5-2.3-.4-.7-.9-.9-1.6-.7-.4.1-.7.2-.7.2-.2 0-.5.2-.8.5z"/><path class="st3" d="M44.5 39.1c-1.8-.2-3.7-.4-5.7-.7-.1.3-.2.6-.2.9 0 .7.3 1.2.9 1.7.5.4 1.1.6 1.8.6.5 0 1-.1 1.3-.4.4-.3.6-.7.7-1.3h.2c.4 0 .8.1 1 .4 0 .7-.3 1.3-.7 1.8-.5.6-1.1.9-1.8 1-.4 0-.7.1-1 .1-.5 0-1-.1-1.5-.3-.9-.6-1.4-1-1.6-1.2-.5-.4-.8-.9-1-1.4-.2-.6-.3-1.1-.3-1.7 0-1.2.4-2.3 1.3-3 .8-.8 1.8-1.1 3-1.1.3 0 .6 0 .9.1.7.1 1.4.5 2 1.2.6.7.9 1.4.9 2.2 0 .3 0 .7-.2 1.1zm-5.4-1.4c.3 0 .9-.1 1.9-.1.9 0 1.6-.1 2-.2 0-.5-.1-.9-.4-1.2-.3-.2-.7-.4-1.2-.4-.6 0-1.1.1-1.5.4-.6.4-.9.8-.9 1.2 0 .1 0 .2.1.3z"/></g></svg>